{
  "accessors": [
    {
      "bufferView": 2,
      "componentType": 5126,
      "count": 2723,
      "max": [
        1.8179819583892822,
        1.7343000173568726,
        1.6646209955215454
      ],
      "min": [
        -1.50935697555542,
        -1.6143180131912231,
        -3.2305009365081787
      ],
      "type": "VEC3"
    },
    {
      "bufferView": 2,
      "byteOffset": 32676,
      "componentType": 5126,
      "count": 2723,
      "max": [
        0.9995924830436707,
        0.996070921421051,
        0.9986221194267273
      ],
      "min": [
        -0.9967347979545593,
        -0.999520480632782,
        -0.998623788356781
      ],
      "type": "VEC3"
    },
    {
      "bufferView": 1,
      "componentType": 5126,
      "count": 2723,
      "max": [
        0.7752619981765747,
        0.9900000095367432
      ],
      "min": [
        0.009999999776482582,
        0.24343299865722656
      ],
      "type": "VEC2"
    },
    {
      "bufferView": 0,
      "componentType": 5125,
      "count": 11145,
      "type": "SCALAR"
    }
  ],
  "asset": {
    "extras": {
      "author": "hellotaia (https://sketchfab.com/hellotaia)",
      "license": "CC-BY-4.0 (http://creativecommons.org/licenses/by/4.0/)",
      "source": "https://sketchfab.com/3d-models/flower-test-b0723478aacb480dbd755dee883d32aa",
      "title": "flower test"
    },
    "generator": "Sketchfab-12.68.0",
    "version": "2.0"
  },
  "bufferViews": [
    {
      "buffer": 0,
      "byteLength": 44580,
      "name": "floatBufferViews",
      "target": 34963
    },
    {
      "buffer": 0,
      "byteLength": 21784,
      "byteOffset": 44580,
      "byteStride": 8,
      "name": "floatBufferViews",
      "target": 34962
    },
    {
      "buffer": 0,
      "byteLength": 65352,
      "byteOffset": 66364,
      "byteStride": 12,
      "name": "floatBufferViews",
      "target": 34962
    }
  ],
  "buffers": [
    {
      "byteLength": 131716,
      "uri": "scene.bin"
    }
  ],
  "images": [
    {
      "uri": "textures/branch.002_baseColor.png"
    }
  ],
  "materials": [
    {
      "doubleSided": true,
      "name": "branch.002",
      "pbrMetallicRoughness": {
        "baseColorTexture": {
          "index": 0
        },
        "metallicFactor": 0.0,
        "roughnessFactor": 0.6
      }
    }
  ],
  "meshes": [
    {
      "name": "Object_0",
      "primitives": [
        {
          "attributes": {
            "NORMAL": 1,
            "POSITION": 0,
            "TEXCOORD_0": 2
          },
          "indices": 3,
          "material": 0,
          "mode": 4
        }
      ]
    }
  ],
  "nodes": [
    {
      "children": [
        1
      ],
      "matrix": [
        1.0,
        0.0,
        0.0,
        0.0,
        0.0,
        2.220446049250313e-16,
        -1.0,
        0.0,
        0.0,
        1.0,
        2.220446049250313e-16,
        0.0,
        0.0,
        0.0,
        0.0,
        1.0
      ],
      "name": "Sketchfab_model"
    },
    {
      "children": [
        2
      ],
      "name": "2005d34654144e7a914b46d192a61331.obj.cleaner.materialmerger.gles"
    },
    {
      "mesh": 0,
      "name": "Object_2"
    }
  ],
  "samplers": [
    {
      "magFilter": 9729,
      "minFilter": 9987,
      "wrapS": 10497,
      "wrapT": 10497
    }
  ],
  "scene": 0,
  "scenes": [
    {
      "name": "Sketchfab_Scene",
      "nodes": [
        0
      ]
    }
  ],
  "textures": [
    {
      "sampler": 0,
      "source": 0
    }
  ]
}
