{
  "accessors": [
    {
      "bufferView": 2,
      "componentType": 5126,
      "count": 65532,
      "max": [
        0.8332418203353882,
        -0.9737030267715454,
        -0.9531109929084778
      ],
      "min": [
        -0.34532099962234497,
        -1.5672658681869507,
        -1.2528108358383179
      ],
      "type": "VEC3"
    },
    {
      "bufferView": 2,
      "byteOffset": 786384,
      "componentType": 5126,
      "count": 65532,
      "max": [
        0.9992581009864807,
        0.9999668002128601,
        0.9999958872795105
      ],
      "min": [
        -0.9992578029632568,
        -0.9999083280563354,
        -0.9999114871025085
      ],
      "type": "VEC3"
    },
    {
      "bufferView": 1,
      "componentType": 5126,
      "count": 65532,
      "max": [
        0.9807959794998169,
        0.892848014831543
      ],
      "min": [
        0.07511000335216522,
        0.10636699944734573
      ],
      "type": "VEC2"
    },
    {
      "bufferView": 0,
      "componentType": 5125,
      "count": 65532,
      "type": "SCALAR"
    },
    {
      "bufferView": 2,
      "byteOffset": 1572768,
      "componentType": 5126,
      "count": 65532,
      "max": [
        0.2853659987449646,
        -0.9720349907875061,
        -0.9547479748725891
      ],
      "min": [
        -0.35662800073623657,
        -1.5600039958953857,
        -1.249392032623291
      ],
      "type": "VEC3"
    },
    {
      "bufferView": 2,
      "byteOffset": 2359152,
      "componentType": 5126,
      "count": 65532,
      "max": [
        0.9999918937683105,
        0.9999627470970154,
        0.9999749660491943
      ],
      "min": [
        -0.999133288860321,
        -0.9993506073951721,
        -0.9999784827232361
      ],
      "type": "VEC3"
    },
    {
      "bufferView": 1,
      "byteOffset": 524256,
      "componentType": 5126,
      "count": 65532,
      "max": [
        0.9860990047454834,
        0.9997829794883728
      ],
      "min": [
        0.004912000149488449,
        0.00023499999952036887
      ],
      "type": "VEC2"
    },
    {
      "bufferView": 0,
      "byteOffset": 262128,
      "componentType": 5125,
      "count": 65532,
      "type": "SCALAR"
    },
    {
      "bufferView": 2,
      "byteOffset": 3145536,
      "componentType": 5126,
      "count": 65532,
      "max": [
        0.28230100870132446,
        -1.0023159980773926,
        -0.9537699818611145
      ],
      "min": [
        -0.3568060100078583,
        -1.5820339918136597,
        -1.2462610006332397
      ],
      "type": "VEC3"
    },
    {
      "bufferView": 2,
      "byteOffset": 3931920,
      "componentType": 5126,
      "count": 65532,
      "max": [
        0.9999812841415405,
        0.9911276698112488,
        0.9999932050704956
      ],
      "min": [
        -0.9999058246612549,
        -0.9999619126319885,
        -0.9997743368148804
      ],
      "type": "VEC3"
    },
    {
      "bufferView": 1,
      "byteOffset": 1048512,
      "componentType": 5126,
      "count": 65532,
      "max": [
        0.9861119985580444,
        0.9994339942932129
      ],
      "min": [
        0.021553000435233116,
        0.01933000050485134
      ],
      "type": "VEC2"
    },
    {
      "bufferView": 0,
      "byteOffset": 524256,
      "componentType": 5125,
      "count": 65532,
      "type": "SCALAR"
    },
    {
      "bufferView": 2,
      "byteOffset": 4718304,
      "componentType": 5126,
      "count": 65532,
      "max": [
        0.8480117917060852,
        -0.9859579801559448,
        -0.9534479975700378
      ],
      "min": [
        -0.27194198966026306,
        -1.5325289964675903,
        -1.2528109550476074
      ],
      "type": "VEC3"
    },
    {
      "bufferView": 2,
      "byteOffset": 5504688,
      "componentType": 5126,
      "count": 65532,
      "max": [
        0.9999918937683105,
        0.9999082088470459,
        0.9999967813491821
      ],
      "min": [
        -0.9995933771133423,
        -0.9993420243263245,
        -0.9999113082885742
      ],
      "type": "VEC3"
    },
    {
      "bufferView": 1,
      "byteOffset": 1572768,
      "componentType": 5126,
      "count": 65532,
      "max": [
        0.9807959794998169,
        0.9992820024490356
      ],
      "min": [
        3.9999998989515007e-05,
        0.01933399960398674
      ],
      "type": "VEC2"
    },
    {
      "bufferView": 0,
      "byteOffset": 786384,
      "componentType": 5125,
      "count": 65532,
      "type": "SCALAR"
    },
    {
      "bufferView": 2,
      "byteOffset": 6291072,
      "componentType": 5126,
      "count": 65532,
      "max": [
        0.8478337526321411,
        -1.0147669315338135,
        -0.9534480571746826
      ],
      "min": [
        0.20727375149726868,
        -1.565675973892212,
        -1.2462610006332397
      ],
      "type": "VEC3"
    },
    {
      "bufferView": 2,
      "byteOffset": 7077456,
      "componentType": 5126,
      "count": 65532,
      "max": [
        0.9993453621864319,
        0.9999619126319885,
        0.9999967813491821
      ],
      "min": [
        -0.9999918341636658,
        -0.9942660927772522,
        -0.9997769594192505
      ],
      "type": "VEC3"
    },
    {
      "bufferView": 1,
      "byteOffset": 2097024,
      "componentType": 5126,
      "count": 65532,
      "max": [
        0.9861119985580444,
        0.9994339942932129
      ],
      "min": [
        3.9999998989515007e-05,
        0.01933000050485134
      ],
      "type": "VEC2"
    },
    {
      "bufferView": 0,
      "byteOffset": 1048512,
      "componentType": 5125,
      "count": 65532,
      "type": "SCALAR"
    },
    {
      "bufferView": 2,
      "byteOffset": 7863840,
      "componentType": 5126,
      "count": 65532,
      "max": [
        0.8365268111228943,
        -1.0079879760742188,
        -0.9532819390296936
      ],
      "min": [
        0.20583978295326233,
        -1.595956802368164,
        -1.249392032623291
      ],
      "type": "VEC3"
    },
    {
      "bufferView": 2,
      "byteOffset": 8650224,
      "componentType": 5126,
      "count": 65532,
      "max": [
        0.9965676069259644,
        0.9993525147438049,
        0.999994158744812
      ],
      "min": [
        -0.9999919533729553,
        -0.999967098236084,
        -0.9999784827232361
      ],
      "type": "VEC3"
    },
    {
      "bufferView": 1,
      "byteOffset": 2621280,
      "componentType": 5126,
      "count": 65532,
      "max": [
        0.9860990047454834,
        0.9997829794883728
      ],
      "min": [
        0.004912000149488449,
        0.00023499999952036887
      ],
      "type": "VEC2"
    },
    {
      "bufferView": 0,
      "byteOffset": 1310640,
      "componentType": 5125,
      "count": 65532,
      "type": "SCALAR"
    },
    {
      "bufferView": 2,
      "byteOffset": 9436608,
      "componentType": 5126,
      "count": 13512,
      "max": [
        0.754234790802002,
        -1.2029428482055664,
        -0.953110933303833
      ],
      "min": [
        0.2730388641357422,
        -1.5927248001098633,
        -1.1571218967437744
      ],
      "type": "VEC3"
    },
    {
      "bufferView": 2,
      "byteOffset": 9598752,
      "componentType": 5126,
      "count": 13512,
      "max": [
        0.8573434948921204,
        0.38330090045928955,
        0.9999959468841553
      ],
      "min": [
        -0.9721927046775818,
        -0.9983603358268738,
        -0.9988411068916321
      ],
      "type": "VEC3"
    },
    {
      "bufferView": 1,
      "byteOffset": 3145536,
      "componentType": 5126,
      "count": 13512,
      "max": [
        0.9408429861068726,
        0.7164260149002075
      ],
      "min": [
        0.07511000335216522,
        0.10636699944734573
      ],
      "type": "VEC2"
    },
    {
      "bufferView": 0,
      "byteOffset": 1572768,
      "componentType": 5125,
      "count": 13512,
      "type": "SCALAR"
    },
    {
      "bufferView": 2,
      "byteOffset": 9760896,
      "componentType": 5126,
      "count": 65532,
      "max": [
        0.2723360061645508,
        -1.0023159980773926,
        -0.9534479975700378
      ],
      "min": [
        -0.34642601013183594,
        -1.5619059801101685,
        -1.2528109550476074
      ],
      "type": "VEC3"
    },
    {
      "bufferView": 2,
      "byteOffset": 10547280,
      "componentType": 5126,
      "count": 65532,
      "max": [
        0.9999918937683105,
        0.9999082088470459,
        0.9999967813491821
      ],
      "min": [
        -0.9951288104057312,
        -0.9999619126319885,
        -0.9999113082885742
      ],
      "type": "VEC3"
    },
    {
      "bufferView": 1,
      "byteOffset": 3253632,
      "componentType": 5126,
      "count": 65532,
      "max": [
        0.9861119985580444,
        0.9994339942932129
      ],
      "min": [
        3.9999998989515007e-05,
        0.01933000050485134
      ],
      "type": "VEC2"
    },
    {
      "bufferView": 0,
      "byteOffset": 1626816,
      "componentType": 5125,
      "count": 65532,
      "type": "SCALAR"
    },
    {
      "bufferView": 2,
      "byteOffset": 11333664,
      "componentType": 5126,
      "count": 65532,
      "max": [
        0.28393200039863586,
        -1.025514006614685,
        -0.9538229703903198
      ],
      "min": [
        -0.3568060100078583,
        -1.5820339918136597,
        -1.241036057472229
      ],
      "type": "VEC3"
    },
    {
      "bufferView": 2,
      "byteOffset": 12120048,
      "componentType": 5126,
      "count": 65532,
      "max": [
        0.9999679327011108,
        0.9980216026306152,
        0.9999896883964539
      ],
      "min": [
        -0.9999058246612549,
        -0.9995772242546082,
        -0.9998505115509033
      ],
      "type": "VEC3"
    },
    {
      "bufferView": 1,
      "byteOffset": 3777888,
      "componentType": 5126,
      "count": 65532,
      "max": [
        0.9847999811172485,
        0.9777079820632935
      ],
      "min": [
        0.004912000149488449,
        0.017078999429941177
      ],
      "type": "VEC2"
    },
    {
      "bufferView": 0,
      "byteOffset": 1888944,
      "componentType": 5125,
      "count": 65532,
      "type": "SCALAR"
    },
    {
      "bufferView": 2,
      "byteOffset": 12906432,
      "componentType": 5126,
      "count": 65532,
      "max": [
        0.2853659987449646,
        -0.9720349907875061,
        -0.9531109929084778
      ],
      "min": [
        -0.34532099962234497,
        -1.5572949647903442,
        -1.249392032623291
      ],
      "type": "VEC3"
    },
    {
      "bufferView": 2,
      "byteOffset": 13692816,
      "componentType": 5126,
      "count": 65532,
      "max": [
        0.9999918937683105,
        0.9999668002128601,
        0.9999958872795105
      ],
      "min": [
        -0.9965715408325195,
        -0.9986081123352051,
        -0.9999784827232361
      ],
      "type": "VEC3"
    },
    {
      "bufferView": 1,
      "byteOffset": 4302144,
      "componentType": 5126,
      "count": 65532,
      "max": [
        0.9860990047454834,
        0.9997829794883728
      ],
      "min": [
        0.07511000335216522,
        0.00023499999952036887
      ],
      "type": "VEC2"
    },
    {
      "bufferView": 0,
      "byteOffset": 2151072,
      "componentType": 5125,
      "count": 65532,
      "type": "SCALAR"
    },
    {
      "bufferView": 2,
      "byteOffset": 14479200,
      "componentType": 5126,
      "count": 6756,
      "max": [
        0.03488599881529808,
        -1.006263017654419,
        -1.1014540195465088
      ],
      "min": [
        -0.18644799292087555,
        -1.1080520153045654,
        -1.212157964706421
      ],
      "type": "VEC3"
    },
    {
      "bufferView": 2,
      "byteOffset": 14560272,
      "componentType": 5126,
      "count": 6756,
      "max": [
        0.9992581009864807,
        0.9985700249671936,
        0.9176586270332336
      ],
      "min": [
        -0.6737827062606812,
        -0.6294155716896057,
        -0.9990639090538025
      ],
      "type": "VEC3"
    },
    {
      "bufferView": 1,
      "byteOffset": 4826400,
      "componentType": 5126,
      "count": 6756,
      "max": [
        0.8143829703330994,
        0.4347440004348755
      ],
      "min": [
        0.6016910076141357,
        0.2803820073604584
      ],
      "type": "VEC2"
    },
    {
      "bufferView": 0,
      "byteOffset": 2413200,
      "componentType": 5125,
      "count": 6756,
      "type": "SCALAR"
    },
    {
      "bufferView": 2,
      "byteOffset": 14641344,
      "componentType": 5126,
      "count": 11454,
      "max": [
        0.17528867721557617,
        0.0068910326808691025,
        -0.10164039582014084
      ],
      "min": [
        0.01744023896753788,
        0.0,
        -0.20765554904937744
      ],
      "type": "VEC3"
    },
    {
      "bufferView": 2,
      "byteOffset": 14778792,
      "componentType": 5126,
      "count": 11454,
      "max": [
        0.9999998807907104,
        1.0,
        0.9999920725822449
      ],
      "min": [
        -0.9999696016311646,
        -1.0,
        -0.9999951720237732
      ],
      "type": "VEC3"
    },
    {
      "bufferView": 3,
      "componentType": 5126,
      "count": 11454,
      "max": [
        1.0,
        0.999998927116394,
        1.0,
        1.0
      ],
      "min": [
        -0.9999673366546631,
        -0.9868472218513489,
        -1.0,
        -1.0
      ],
      "type": "VEC4"
    },
    {
      "bufferView": 1,
      "byteOffset": 4880448,
      "componentType": 5126,
      "count": 11454,
      "max": [
        0.9295402765274048,
        0.6792737245559692
      ],
      "min": [
        -0.07045978307723999,
        0.3001721203327179
      ],
      "type": "VEC2"
    },
    {
      "bufferView": 1,
      "byteOffset": 4972080,
      "componentType": 5126,
      "count": 11454,
      "max": [
        0.9295402765274048,
        0.6792737245559692
      ],
      "min": [
        -0.07045978307723999,
        0.3001721203327179
      ],
      "type": "VEC2"
    },
    {
      "bufferView": 1,
      "byteOffset": 5063712,
      "componentType": 5126,
      "count": 11454,
      "max": [
        0.9295402765274048,
        0.6792737245559692
      ],
      "min": [
        -0.07045978307723999,
        0.3001721203327179
      ],
      "type": "VEC2"
    },
    {
      "bufferView": 1,
      "byteOffset": 5155344,
      "componentType": 5126,
      "count": 11454,
      "max": [
        1.3203058242797852,
        1.1065415143966675
      ],
      "min": [
        -0.5894240140914917,
        -0.17608308792114258
      ],
      "type": "VEC2"
    },
    {
      "bufferView": 1,
      "byteOffset": 5246976,
      "componentType": 5126,
      "count": 11454,
      "max": [
        0.9295402765274048,
        0.6792737245559692
      ],
      "min": [
        -0.07045978307723999,
        0.3001721203327179
      ],
      "type": "VEC2"
    },
    {
      "bufferView": 0,
      "byteOffset": 2440224,
      "componentType": 5125,
      "count": 58422,
      "type": "SCALAR"
    }
  ],
  "asset": {
    "extras": {
      "author": "Rainbow (https://sketchfab.com/encoded01)",
      "license": "CC-BY-4.0 (http://creativecommons.org/licenses/by/4.0/)",
      "source": "https://sketchfab.com/3d-models/french-mini-baguette-on-a-cutting-board-c03bb40f7b7e44f296b542c9d0ff6f89",
      "title": "French mini baguette on a cutting board"
    },
    "generator": "Sketchfab-14.69.0",
    "version": "2.0"
  },
  "bufferViews": [
    {
      "buffer": 0,
      "byteLength": 2673912,
      "name": "floatBufferViews",
      "target": 34963
    },
    {
      "buffer": 0,
      "byteLength": 5338608,
      "byteOffset": 2673912,
      "byteStride": 8,
      "name": "floatBufferViews",
      "target": 34962
    },
    {
      "buffer": 0,
      "byteLength": 14916240,
      "byteOffset": 8012520,
      "byteStride": 12,
      "name": "floatBufferViews",
      "target": 34962
    },
    {
      "buffer": 0,
      "byteLength": 183264,
      "byteOffset": 22928760,
      "byteStride": 16,
      "name": "floatBufferViews",
      "target": 34962
    }
  ],
  "buffers": [
    {
      "byteLength": 23112024,
      "uri": "scene.bin"
    }
  ],
  "extensionsUsed": [
    "KHR_materials_specular"
  ],
  "images": [
    {
      "uri": "textures/3DModel.001_baseColor.jpeg"
    },
    {
      "uri": "textures/Fine_wood_baseColor.jpeg"
    },
    {
      "uri": "textures/Fine_wood_metallicRoughness.png"
    },
    {
      "uri": "textures/Fine_wood_normal.jpeg"
    }
  ],
  "materials": [
    {
      "doubleSided": true,
      "name": "3DModel.001",
      "pbrMetallicRoughness": {
        "baseColorTexture": {
          "index": 0
        },
        "metallicFactor": 0.0
      }
    },
    {
      "doubleSided": true,
      "extensions": {
        "KHR_materials_specular": {
          "specularColorFactor": [
            1.0,
            1.0,
            1.0
          ],
          "specularFactor": 0.45478605282210716
        }
      },
      "name": "Fine_wood",
      "normalTexture": {
        "index": 3,
        "texCoord": 2
      },
      "pbrMetallicRoughness": {
        "baseColorFactor": [
          0.8624203744151664,
          0.8624203744151664,
          0.8624203744151664,
          1.0
        ],
        "baseColorTexture": {
          "index": 1
        },
        "metallicFactor": 0.0,
        "metallicRoughnessTexture": {
          "index": 2,
          "texCoord": 1
        }
      }
    }
  ],
  "meshes": [
    {
      "name": "Object_0",
      "primitives": [
        {
          "attributes": {
            "NORMAL": 1,
            "POSITION": 0,
            "TEXCOORD_0": 2
          },
          "indices": 3,
          "material": 0,
          "mode": 4
        }
      ]
    },
    {
      "name": "Object_1",
      "primitives": [
        {
          "attributes": {
            "NORMAL": 5,
            "POSITION": 4,
            "TEXCOORD_0": 6
          },
          "indices": 7,
          "material": 0,
          "mode": 4
        }
      ]
    },
    {
      "name": "Object_2",
      "primitives": [
        {
          "attributes": {
            "NORMAL": 9,
            "POSITION": 8,
            "TEXCOORD_0": 10
          },
          "indices": 11,
          "material": 0,
          "mode": 4
        }
      ]
    },
    {
      "name": "Object_3",
      "primitives": [
        {
          "attributes": {
            "NORMAL": 13,
            "POSITION": 12,
            "TEXCOORD_0": 14
          },
          "indices": 15,
          "material": 0,
          "mode": 4
        }
      ]
    },
    {
      "name": "Object_4",
      "primitives": [
        {
          "attributes": {
            "NORMAL": 17,
            "POSITION": 16,
            "TEXCOORD_0": 18
          },
          "indices": 19,
          "material": 0,
          "mode": 4
        }
      ]
    },
    {
      "name": "Object_5",
      "primitives": [
        {
          "attributes": {
            "NORMAL": 21,
            "POSITION": 20,
            "TEXCOORD_0": 22
          },
          "indices": 23,
          "material": 0,
          "mode": 4
        }
      ]
    },
    {
      "name": "Object_6",
      "primitives": [
        {
          "attributes": {
            "NORMAL": 25,
            "POSITION": 24,
            "TEXCOORD_0": 26
          },
          "indices": 27,
          "material": 0,
          "mode": 4
        }
      ]
    },
    {
      "name": "Object_7",
      "primitives": [
        {
          "attributes": {
            "NORMAL": 29,
            "POSITION": 28,
            "TEXCOORD_0": 30
          },
          "indices": 31,
          "material": 0,
          "mode": 4
        }
      ]
    },
    {
      "name": "Object_8",
      "primitives": [
        {
          "attributes": {
            "NORMAL": 33,
            "POSITION": 32,
            "TEXCOORD_0": 34
          },
          "indices": 35,
          "material": 0,
          "mode": 4
        }
      ]
    },
    {
      "name": "Object_9",
      "primitives": [
        {
          "attributes": {
            "NORMAL": 37,
            "POSITION": 36,
            "TEXCOORD_0": 38
          },
          "indices": 39,
          "material": 0,
          "mode": 4
        }
      ]
    },
    {
      "name": "Object_10",
      "primitives": [
        {
          "attributes": {
            "NORMAL": 41,
            "POSITION": 40,
            "TEXCOORD_0": 42
          },
          "indices": 43,
          "material": 0,
          "mode": 4
        }
      ]
    },
    {
      "name": "Object_11",
      "primitives": [
        {
          "attributes": {
            "NORMAL": 45,
            "POSITION": 44,
            "TANGENT": 46,
            "TEXCOORD_0": 47,
            "TEXCOORD_1": 48,
            "TEXCOORD_2": 49,
            "TEXCOORD_3": 50,
            "TEXCOORD_4": 51
          },
          "indices": 52,
          "material": 1,
          "mode": 4
        }
      ]
    }
  ],
  "nodes": [
    {
      "children": [
        1
      ],
      "matrix": [
        0.3308858573436737,
        0.0,
        0.0,
        0.0,
        0.0,
        7.34714194691563e-17,
        -0.3308858573436737,
        0.0,
        0.0,
        0.3308858573436737,
        7.34714194691563e-17,
        0.0,
        0.0,
        0.0,
        0.0,
        1.0
      ],
      "name": "Sketchfab_model"
    },
    {
      "children": [
        2
      ],
      "name": "root"
    },
    {
      "children": [
        3,
        11,
        16
      ],
      "matrix": [
        1.0,
        0.0,
        0.0,
        0.0,
        0.0,
        2.220446049250313e-16,
        1.0,
        0.0,
        0.0,
        -1.0,
        2.220446049250313e-16,
        0.0,
        0.0,
        0.0,
        0.0,
        1.0
      ],
      "name": "GLTF_SceneRootNode"
    },
    {
      "children": [
        4,
        5,
        6,
        7,
        8,
        9,
        10
      ],
      "matrix": [
        -0.724700715364996,
        7.864809192792421e-09,
        -0.6890637656628469,
        0.0,
        0.6890637656628433,
        -9.391447663986696e-08,
        -0.7247007153649934,
        0.0,
        -7.041269584062704e-08,
        -0.9999999999999956,
        6.264053342697196e-08,
        0.0,
        1.2828141450881958,
        0.0,
        -0.7146466374397278,
        1.0
      ],
      "name": "3DModel.001_1"
    },
    {
      "mesh": 0,
      "name": "Object_4"
    },
    {
      "mesh": 1,
      "name": "Object_5"
    },
    {
      "mesh": 2,
      "name": "Object_6"
    },
    {
      "mesh": 3,
      "name": "Object_7"
    },
    {
      "mesh": 4,
      "name": "Object_8"
    },
    {
      "mesh": 5,
      "name": "Object_9"
    },
    {
      "mesh": 6,
      "name": "Object_10"
    },
    {
      "children": [
        12,
        13,
        14,
        15
      ],
      "matrix": [
        0.8528673214179733,
        -5.159211724503621e-09,
        0.5221276970792982,
        0.0,
        -0.5221276970792911,
        -1.7369930582766813e-07,
        0.85286732141796,
        0.0,
        8.629309544705421e-08,
        -0.9999999999999848,
        -1.5083622906253424e-07,
        0.0,
        -0.38335999846458435,
        0.0,
        0.29002654552459717,
        1.0
      ],
      "name": "3DModel.002_2"
    },
    {
      "mesh": 7,
      "name": "Object_12"
    },
    {
      "mesh": 8,
      "name": "Object_13"
    },
    {
      "mesh": 9,
      "name": "Object_14"
    },
    {
      "mesh": 10,
      "name": "Object_15"
    },
    {
      "children": [
        17
      ],
      "matrix": [
        0.0,
        0.0,
        -12.098503112792969,
        0.0,
        0.0,
        12.098503112792969,
        0.0,
        0.0,
        12.098503112792969,
        0.0,
        0.0,
        0.0,
        2.1164774894714355,
        0.8728073239326477,
        0.8291498422622681,
        1.0
      ],
      "name": "Curve_3"
    },
    {
      "mesh": 11,
      "name": "Object_17"
    }
  ],
  "samplers": [
    {
      "magFilter": 9729,
      "minFilter": 9987,
      "wrapS": 10497,
      "wrapT": 10497
    }
  ],
  "scene": 0,
  "scenes": [
    {
      "name": "Sketchfab_Scene",
      "nodes": [
        0
      ]
    }
  ],
  "textures": [
    {
      "sampler": 0,
      "source": 0
    },
    {
      "sampler": 0,
      "source": 1
    },
    {
      "sampler": 0,
      "source": 2
    },
    {
      "sampler": 0,
      "source": 3
    }
  ]
}
